<svg width="123" height="40" viewBox="0 0 123 40" fill="none" xmlns="http://www.w3.org/2000/svg">
<path d="M3.872 39.456C3.232 39.456 2.664 39.32 2.168 39.048C1.688 38.792 1.304 38.424 1.016 37.944C0.728 37.464 0.584 36.912 0.584 36.288C0.584 35.984 0.688 35.752 0.896 35.592C1.12 35.448 1.376 35.368 1.664 35.352C1.968 35.336 2.224 35.4 2.432 35.544C2.656 35.688 2.768 35.912 2.768 36.216C2.768 36.632 2.888 36.952 3.128 37.176C3.368 37.4 3.664 37.512 4.016 37.512C4.848 37.512 5.632 37.04 6.368 36.096C7.104 35.152 7.768 33.784 8.36 31.992L15.44 10.248C15.888 8.92 16.104 7.848 16.088 7.032C16.072 6.216 15.84 5.616 15.392 5.232C14.96 4.848 14.32 4.656 13.472 4.656C12.704 4.656 11.976 4.816 11.288 5.136C10.616 5.44 9.992 5.88 9.416 6.456C8.856 7.016 8.368 7.696 7.952 8.496C7.536 9.28 7.216 10.16 6.992 11.136C6.768 12.112 6.656 13.152 6.656 14.256C6.656 14.976 6.696 15.704 6.776 16.44C6.872 17.16 7.008 17.864 7.184 18.552C7.376 19.24 7.6 19.888 7.856 20.496C8.128 21.104 8.44 21.656 8.792 22.152C8.968 22.408 9 22.648 8.888 22.872C8.776 23.096 8.632 23.272 8.456 23.4C8.136 23.624 7.88 23.728 7.688 23.712C7.496 23.696 7.312 23.56 7.136 23.304C6.72 22.664 6.344 21.984 6.008 21.264C5.672 20.528 5.384 19.768 5.144 18.984C4.904 18.2 4.728 17.416 4.616 16.632C4.504 15.848 4.448 15.08 4.448 14.328C4.448 12.984 4.6 11.728 4.904 10.56C5.208 9.376 5.632 8.304 6.176 7.344C6.736 6.368 7.4 5.536 8.168 4.848C8.936 4.144 9.776 3.6 10.688 3.216C11.6 2.832 12.568 2.64 13.592 2.64C14.952 2.64 16.016 2.952 16.784 3.576C17.552 4.184 17.992 5.088 18.104 6.288C18.232 7.472 18.008 8.96 17.432 10.752L10.328 32.544C9.848 34.048 9.272 35.312 8.6 36.336C7.928 37.36 7.192 38.136 6.392 38.664C5.592 39.192 4.752 39.456 3.872 39.456ZM0.553999 36.288C0.553999 35.696 0.689999 35.096 0.961999 34.488C1.234 33.88 1.626 33.272 2.138 32.664C2.65 32.056 3.282 31.44 4.034 30.816C4.786 30.208 5.65 29.592 6.626 28.968C7.586 28.36 8.65 27.752 9.818 27.144C10.842 26.6 11.794 26.096 12.674 25.632C13.554 25.168 14.354 24.72 15.074 24.288C15.794 23.84 16.434 23.384 16.994 22.92C17.57 22.456 18.074 21.968 18.506 21.456C18.938 20.928 19.298 20.352 19.586 19.728C19.714 19.44 19.89 19.304 20.114 19.32C20.338 19.32 20.522 19.424 20.666 19.632C20.826 19.824 20.842 20.072 20.714 20.376C20.426 21.08 20.05 21.728 19.586 22.32C19.138 22.912 18.61 23.472 18.002 24C17.394 24.528 16.706 25.048 15.938 25.56C15.17 26.056 14.33 26.56 13.418 27.072C12.49 27.6 11.474 28.152 10.37 28.728C9.17 29.384 8.106 30.032 7.178 30.672C6.234 31.312 5.434 31.944 4.778 32.568C4.122 33.192 3.626 33.808 3.29 34.416C2.938 35.024 2.762 35.632 2.762 36.24C2.762 36.544 2.65 36.768 2.426 36.912C2.202 37.072 1.946 37.152 1.658 37.152C1.37 37.168 1.114 37.104 0.889999 36.96C0.665999 36.816 0.553999 36.592 0.553999 36.288ZM22.3694 27.456C21.3774 27.456 20.5374 27.256 19.8494 26.856C19.1614 26.456 18.6414 25.904 18.2894 25.2C17.9534 24.48 17.7854 23.672 17.7854 22.776C17.7854 21.928 17.9374 21.032 18.2414 20.088C18.5454 19.128 18.9934 18.232 19.5854 17.4C20.1934 16.552 20.9454 15.864 21.8414 15.336C22.7534 14.808 23.8094 14.544 25.0094 14.544C26.0014 14.544 26.8334 14.736 27.5054 15.12C28.1934 15.488 28.7054 16.016 29.0414 16.704C29.3934 17.376 29.5694 18.16 29.5694 19.056C29.5694 19.696 29.4734 20.4 29.2814 21.168C29.1054 21.92 28.8254 22.672 28.4414 23.424C28.0734 24.16 27.6014 24.832 27.0254 25.44C26.4494 26.048 25.7694 26.536 24.9854 26.904C24.2174 27.272 23.3454 27.456 22.3694 27.456ZM22.6094 25.536C23.3934 25.536 24.0814 25.328 24.6734 24.912C25.2654 24.496 25.7614 23.968 26.1614 23.328C26.5614 22.672 26.8654 21.992 27.0734 21.288C27.2814 20.568 27.3854 19.904 27.3854 19.296C27.3854 18.672 27.2814 18.152 27.0734 17.736C26.8654 17.32 26.5694 17.008 26.1854 16.8C25.8014 16.576 25.3454 16.464 24.8174 16.464C24.0174 16.464 23.3134 16.672 22.7054 17.088C22.0974 17.488 21.5854 18.008 21.1694 18.648C20.7694 19.288 20.4654 19.96 20.2574 20.664C20.0494 21.368 19.9454 22.016 19.9454 22.608C19.9454 23.232 20.0494 23.768 20.2574 24.216C20.4814 24.648 20.7934 24.976 21.1934 25.2C21.5934 25.424 22.0654 25.536 22.6094 25.536ZM33.4469 18.936C32.5509 18.936 31.6149 18.784 30.6389 18.48C29.6469 18.16 28.6549 17.672 27.6629 17.016C27.4389 16.872 27.3189 16.712 27.3029 16.536C27.2869 16.344 27.3349 16.176 27.4469 16.032C27.5589 15.872 27.6949 15.76 27.8549 15.696C28.0149 15.632 28.1589 15.64 28.2869 15.72C28.8789 16.088 29.4629 16.392 30.0389 16.632C30.6149 16.872 31.1829 17.048 31.7429 17.16C32.3189 17.256 32.8789 17.304 33.4229 17.304C34.1269 17.304 34.8149 17.184 35.4869 16.944C36.1589 16.704 36.7989 16.384 37.4069 15.984C38.0309 15.568 38.6149 15.088 39.1589 14.544C39.7029 14 40.2069 13.424 40.6709 12.816C41.1349 12.192 41.5509 11.552 41.9189 10.896C42.2869 10.24 42.5989 9.608 42.8549 9C43.1109 8.376 43.3029 7.792 43.4309 7.248C43.5749 6.688 43.6469 6.2 43.6469 5.784C43.6469 5.544 43.7429 5.368 43.9349 5.256C44.1429 5.128 44.3829 5.064 44.6549 5.064C44.9269 5.064 45.1589 5.128 45.3509 5.256C45.5589 5.368 45.6629 5.544 45.6629 5.784C45.6629 6.232 45.5829 6.768 45.4229 7.392C45.2629 8 45.0309 8.656 44.7269 9.36C44.4229 10.064 44.0549 10.792 43.6229 11.544C43.1909 12.28 42.7029 13.008 42.1589 13.728C41.6149 14.432 41.0149 15.104 40.3589 15.744C39.7189 16.368 39.0229 16.92 38.2709 17.4C37.5349 17.88 36.7589 18.256 35.9429 18.528C35.1429 18.8 34.3109 18.936 33.4469 18.936ZM35.9195 27.456C35.1035 27.456 34.4635 27.296 33.9995 26.976C33.5355 26.656 33.2155 26.24 33.0395 25.728C32.8795 25.2 32.8235 24.632 32.8715 24.024C32.9195 23.4 33.0395 22.784 33.2315 22.176L37.8875 7.896C38.4795 6.024 39.1355 4.664 39.8555 3.816C40.5915 2.968 41.4715 2.544 42.4955 2.544C43.0075 2.544 43.4475 2.68 43.8155 2.952C44.1995 3.224 44.4955 3.6 44.7035 4.08C44.9275 4.56 45.0395 5.128 45.0395 5.784C45.0395 6.088 44.9355 6.312 44.7275 6.456C44.5355 6.6 44.3035 6.672 44.0315 6.672C43.7595 6.672 43.5195 6.6 43.3115 6.456C43.1195 6.312 43.0235 6.088 43.0235 5.784C43.0235 5.512 42.9995 5.28 42.9515 5.088C42.9035 4.896 42.8235 4.744 42.7115 4.632C42.5995 4.52 42.4315 4.464 42.2075 4.464C41.9515 4.464 41.7035 4.576 41.4635 4.8C41.2395 5.008 40.9915 5.4 40.7195 5.976C40.4635 6.536 40.1595 7.336 39.8075 8.376L35.3435 22.176C35.2155 22.576 35.1035 22.976 35.0075 23.376C34.9275 23.76 34.9035 24.12 34.9355 24.456C34.9675 24.776 35.0955 25.04 35.3195 25.248C35.5435 25.44 35.9035 25.536 36.3995 25.536C36.9275 25.536 37.4635 25.368 38.0075 25.032C38.5675 24.68 39.0955 24.216 39.5915 23.64C40.0875 23.064 40.5275 22.424 40.9115 21.72C41.3115 21.016 41.6235 20.288 41.8475 19.536C42.0715 18.784 42.1835 18.072 42.1835 17.4C42.1835 17.208 42.1755 16.976 42.1595 16.704C42.1435 16.416 42.1115 16.128 42.0635 15.84C42.0155 15.552 42.0155 15.312 42.0635 15.12C42.1115 14.928 42.2075 14.784 42.3515 14.688C42.5115 14.592 42.7115 14.544 42.9515 14.544C43.2555 14.544 43.4955 14.632 43.6715 14.808C43.8635 14.984 44.0075 15.28 44.1035 15.696C44.1355 15.824 44.1595 15.968 44.1755 16.128C44.1915 16.272 44.1995 16.424 44.1995 16.584C44.2155 16.728 44.2235 16.88 44.2235 17.04C44.2235 17.92 44.0795 18.84 43.7915 19.8C43.5195 20.744 43.1275 21.672 42.6155 22.584C42.1035 23.496 41.5035 24.32 40.8155 25.056C40.1275 25.792 39.3675 26.376 38.5355 26.808C37.7035 27.24 36.8315 27.456 35.9195 27.456ZM60.8377 27.456C60.2137 27.456 59.6137 27.384 59.0377 27.24C58.4777 27.112 57.9417 26.928 57.4297 26.688C56.9177 26.432 56.4457 26.136 56.0137 25.8C55.5977 25.464 55.2457 25.112 54.9577 24.744C54.7497 24.44 54.6617 24.184 54.6937 23.976C54.7257 23.752 54.8697 23.528 55.1257 23.304C55.3497 23.128 55.5497 23.048 55.7257 23.064C55.9177 23.08 56.1337 23.208 56.3737 23.448C56.8057 23.848 57.2457 24.192 57.6937 24.48C58.1417 24.768 58.6217 24.992 59.1337 25.152C59.6457 25.296 60.2137 25.368 60.8377 25.368C61.6217 25.368 62.3417 25.248 62.9977 25.008C63.6537 24.752 64.2217 24.4 64.7017 23.952C65.1817 23.488 65.5497 22.928 65.8057 22.272C66.0617 21.616 66.1897 20.888 66.1897 20.088C66.1897 19.48 66.1017 18.88 65.9257 18.288C65.7657 17.68 65.5417 17.088 65.2537 16.512C64.9657 15.936 64.6217 15.36 64.2217 14.784C63.8377 14.192 63.4137 13.6 62.9497 13.008C62.4857 12.416 61.9977 11.808 61.4857 11.184C59.9977 13.488 58.6777 15.488 57.5257 17.184C56.3897 18.88 55.3577 20.32 54.4297 21.504C53.5177 22.672 52.6697 23.64 51.8857 24.408C51.1177 25.16 50.3577 25.744 49.6057 26.16C48.8697 26.576 48.1177 26.864 47.3497 27.024C46.5817 27.184 45.7337 27.264 44.8057 27.264C44.4857 27.264 44.2857 27.176 44.2057 27C44.1257 26.824 44.1417 26.544 44.2537 26.16C44.3337 25.872 44.4697 25.664 44.6617 25.536C44.8377 25.408 45.0777 25.344 45.3817 25.344C45.9417 25.344 46.4697 25.28 46.9657 25.152C47.4617 25.024 47.9657 24.816 48.4777 24.528C48.9897 24.224 49.5257 23.816 50.0857 23.304C50.6457 22.776 51.2617 22.112 51.9337 21.312C52.6057 20.512 53.3417 19.56 54.1417 18.456C54.9577 17.336 55.8697 16.032 56.8777 14.544C57.8857 13.056 59.0137 11.352 60.2617 9.432C60.0217 9.048 59.7977 8.672 59.5897 8.304C59.3977 7.92 59.2217 7.544 59.0617 7.176C58.9177 6.792 58.8057 6.408 58.7257 6.024C58.6457 5.624 58.6057 5.224 58.6057 4.824C58.6057 4.072 58.7577 3.4 59.0617 2.808C59.3657 2.216 59.7817 1.752 60.3097 1.416C60.8377 1.08 61.4457 0.912 62.1337 0.912C62.9817 0.912 63.6777 1.176 64.2217 1.704C64.7657 2.216 65.0377 2.896 65.0377 3.744C65.0377 4.208 64.9577 4.704 64.7977 5.232C64.6377 5.744 64.3817 6.328 64.0297 6.984C63.6937 7.64 63.2377 8.424 62.6617 9.336C63.0137 9.816 63.3897 10.312 63.7897 10.824C64.2057 11.336 64.6297 11.872 65.0617 12.432C65.4937 12.992 65.9017 13.576 66.2857 14.184C66.6857 14.776 67.0377 15.392 67.3417 16.032C67.6457 16.656 67.8857 17.304 68.0617 17.976C68.2537 18.632 68.3497 19.296 68.3497 19.968C68.3497 21.088 68.1657 22.112 67.7977 23.04C67.4457 23.952 66.9337 24.744 66.2617 25.416C65.5897 26.072 64.7897 26.576 63.8617 26.928C62.9497 27.28 61.9417 27.456 60.8377 27.456ZM61.4857 7.512C61.8697 6.872 62.1737 6.336 62.3977 5.904C62.6217 5.456 62.7817 5.064 62.8777 4.728C62.9737 4.392 63.0217 4.088 63.0217 3.816C63.0217 3.496 62.9257 3.24 62.7337 3.048C62.5577 2.856 62.3257 2.76 62.0377 2.76C61.7497 2.76 61.5017 2.84 61.2937 3C61.0857 3.144 60.9257 3.368 60.8137 3.672C60.7017 3.96 60.6457 4.312 60.6457 4.728C60.6457 5.048 60.6777 5.368 60.7417 5.688C60.8217 5.992 60.9177 6.296 61.0297 6.6C61.1577 6.904 61.3097 7.208 61.4857 7.512ZM75.4588 27.408C73.8268 27.408 72.5948 26.952 71.7628 26.04C70.9308 25.112 70.5148 23.92 70.5148 22.464C70.5148 21.616 70.6668 20.736 70.9708 19.824C71.2908 18.896 71.7548 18.032 72.3628 17.232C72.9708 16.432 73.7228 15.784 74.6188 15.288C75.5308 14.792 76.5708 14.544 77.7388 14.544C78.6828 14.544 79.4748 14.688 80.1148 14.976C80.7708 15.264 81.3388 15.688 81.8188 16.248C82.0588 16.536 82.1388 16.784 82.0588 16.992C81.9948 17.184 81.8668 17.368 81.6748 17.544C81.4668 17.704 81.2588 17.8 81.0508 17.832C80.8428 17.848 80.6268 17.736 80.4028 17.496C80.0988 17.16 79.7228 16.904 79.2748 16.728C78.8268 16.552 78.2428 16.464 77.5228 16.464C76.7228 16.464 76.0188 16.664 75.4108 17.064C74.8028 17.464 74.2908 17.984 73.8748 18.624C73.4748 19.248 73.1708 19.912 72.9628 20.616C72.7708 21.304 72.6748 21.952 72.6748 22.56C72.6748 23.072 72.7708 23.56 72.9628 24.024C73.1708 24.488 73.4988 24.864 73.9468 25.152C74.3948 25.424 74.9788 25.56 75.6988 25.56C75.9228 25.56 76.0748 25.656 76.1548 25.848C76.2508 26.024 76.2828 26.24 76.2508 26.496C76.2188 26.736 76.1308 26.944 75.9868 27.12C75.8588 27.312 75.6828 27.408 75.4588 27.408ZM75.3476 27.408C75.2036 27.408 75.0996 27.312 75.0356 27.12C74.9716 26.944 74.9476 26.736 74.9636 26.496C74.9796 26.24 75.0356 26.024 75.1316 25.848C75.2276 25.656 75.3556 25.56 75.5156 25.56C76.3956 25.56 77.3236 25.296 78.2996 24.768C79.2596 24.24 80.2836 23.44 81.3716 22.368C82.4436 21.296 83.5876 19.96 84.8036 18.36C84.8996 18.232 85.0436 18.208 85.2356 18.288C85.4276 18.352 85.5876 18.456 85.7156 18.6C85.8596 18.744 85.8836 18.88 85.7876 19.008C84.5556 20.88 83.3476 22.44 82.1636 23.688C80.9796 24.92 79.8276 25.848 78.7076 26.472C77.5716 27.096 76.4516 27.408 75.3476 27.408ZM87.9476 27.456C86.9556 27.456 86.1156 27.256 85.4276 26.856C84.7396 26.456 84.2196 25.904 83.8676 25.2C83.5316 24.48 83.3636 23.672 83.3636 22.776C83.3636 21.928 83.5156 21.032 83.8196 20.088C84.1236 19.128 84.5716 18.232 85.1636 17.4C85.7716 16.552 86.5236 15.864 87.4196 15.336C88.3316 14.808 89.3876 14.544 90.5876 14.544C91.5796 14.544 92.4116 14.736 93.0836 15.12C93.7716 15.488 94.2836 16.016 94.6196 16.704C94.9716 17.376 95.1476 18.16 95.1476 19.056C95.1476 19.696 95.0516 20.4 94.8596 21.168C94.6836 21.92 94.4036 22.672 94.0196 23.424C93.6516 24.16 93.1796 24.832 92.6036 25.44C92.0276 26.048 91.3476 26.536 90.5636 26.904C89.7956 27.272 88.9236 27.456 87.9476 27.456ZM88.1876 25.536C88.9716 25.536 89.6596 25.328 90.2516 24.912C90.8436 24.496 91.3396 23.968 91.7396 23.328C92.1396 22.672 92.4436 21.992 92.6516 21.288C92.8596 20.568 92.9636 19.904 92.9636 19.296C92.9636 18.672 92.8596 18.152 92.6516 17.736C92.4436 17.32 92.1476 17.008 91.7636 16.8C91.3796 16.576 90.9236 16.464 90.3956 16.464C89.5956 16.464 88.8916 16.672 88.2836 17.088C87.6756 17.488 87.1636 18.008 86.7476 18.648C86.3476 19.288 86.0436 19.96 85.8356 20.664C85.6276 21.368 85.5236 22.016 85.5236 22.608C85.5236 23.232 85.6276 23.768 85.8356 24.216C86.0596 24.648 86.3716 24.976 86.7716 25.2C87.1716 25.424 87.6436 25.536 88.1876 25.536ZM96.7451 17.76C96.0251 17.76 95.3371 17.68 94.6811 17.52C94.0091 17.344 93.2651 16.992 92.4491 16.464C92.2891 16.368 92.2091 16.232 92.2091 16.056C92.1931 15.864 92.2331 15.68 92.3291 15.504C92.4091 15.328 92.5291 15.2 92.6891 15.12C92.8331 15.04 92.9851 15.048 93.1451 15.144C93.7531 15.512 94.3611 15.768 94.9691 15.912C95.5611 16.04 96.2491 16.104 97.0331 16.104C97.4971 16.104 97.9931 16.056 98.5211 15.96C99.0491 15.864 99.5611 15.72 100.057 15.528C100.569 15.336 101.001 15.096 101.353 14.808C101.529 14.664 101.697 14.632 101.857 14.712C102.017 14.776 102.145 14.896 102.241 15.072C102.337 15.248 102.369 15.44 102.337 15.648C102.321 15.84 102.225 16 102.049 16.128C101.489 16.544 100.889 16.872 100.249 17.112C99.6251 17.352 99.0091 17.52 98.4011 17.616C97.7931 17.712 97.2411 17.76 96.7451 17.76ZM100.442 27.36C99.7056 27.36 99.1296 27.184 98.7136 26.832C98.3136 26.464 98.0976 25.928 98.0656 25.224C98.0336 24.504 98.1856 23.632 98.5216 22.608L100.922 15.408C101.034 15.088 101.162 14.88 101.306 14.784C101.466 14.688 101.698 14.64 102.002 14.64C102.498 14.64 102.81 14.72 102.938 14.88C103.082 15.024 103.098 15.256 102.986 15.576L100.442 23.16C100.298 23.56 100.202 23.936 100.154 24.288C100.122 24.64 100.178 24.92 100.322 25.128C100.482 25.336 100.778 25.44 101.21 25.44C101.77 25.44 102.378 25.2 103.034 24.72C103.69 24.24 104.362 23.568 105.05 22.704C105.754 21.84 106.442 20.824 107.114 19.656C107.786 18.472 108.41 17.176 108.986 15.768L109.106 15.408C109.218 15.088 109.346 14.88 109.49 14.784C109.65 14.688 109.882 14.64 110.186 14.64C110.682 14.64 110.994 14.72 111.122 14.88C111.266 15.024 111.282 15.256 111.17 15.576L108.578 23.424C108.306 24.256 108.178 24.832 108.194 25.152C108.21 25.456 108.402 25.608 108.77 25.608C108.994 25.608 109.162 25.704 109.274 25.896C109.386 26.072 109.426 26.28 109.394 26.52C109.378 26.744 109.282 26.944 109.106 27.12C108.93 27.312 108.674 27.408 108.338 27.408C107.634 27.408 107.106 27.272 106.754 27C106.418 26.744 106.21 26.416 106.13 26.016C106.05 25.6 106.05 25.168 106.13 24.72C106.21 24.256 106.314 23.832 106.442 23.448L106.706 22.68C106.226 23.432 105.73 24.096 105.218 24.672C104.706 25.248 104.178 25.736 103.634 26.136C103.106 26.536 102.57 26.84 102.026 27.048C101.498 27.256 100.97 27.36 100.442 27.36ZM108.336 27.408C108.112 27.408 107.944 27.312 107.832 27.12C107.72 26.944 107.68 26.744 107.712 26.52C107.728 26.28 107.824 26.072 108 25.896C108.176 25.704 108.432 25.608 108.768 25.608C109.152 25.608 109.6 25.456 110.112 25.152C110.624 24.848 111.216 24.36 111.888 23.688C112.544 23 113.288 22.096 114.12 20.976C114.968 19.84 115.904 18.448 116.928 16.8C117.072 16.576 117.256 16.48 117.48 16.512C117.72 16.544 117.904 16.648 118.032 16.824C118.176 17 118.184 17.192 118.056 17.4C116.856 19.416 115.792 21.072 114.864 22.368C113.936 23.664 113.096 24.68 112.344 25.416C111.592 26.152 110.896 26.672 110.256 26.976C109.6 27.264 108.96 27.408 108.336 27.408ZM116.063 27.36C115.423 27.36 114.919 27.216 114.551 26.928C114.183 26.624 113.967 26.184 113.903 25.608C113.839 25.016 113.951 24.296 114.239 23.448L116.351 16.92H114.527C114.351 16.92 114.231 16.84 114.167 16.68C114.103 16.52 114.111 16.28 114.191 15.96C114.287 15.64 114.415 15.4 114.575 15.24C114.735 15.08 114.903 15 115.079 15H116.999L118.559 10.248C118.655 9.928 118.775 9.72 118.919 9.624C119.079 9.528 119.319 9.48 119.639 9.48C120.135 9.48 120.447 9.56 120.575 9.72C120.719 9.864 120.735 10.096 120.623 10.416L119.087 15H122.111C122.287 15 122.407 15.08 122.471 15.24C122.551 15.384 122.543 15.624 122.447 15.96C122.367 16.264 122.247 16.504 122.087 16.68C121.927 16.84 121.759 16.92 121.583 16.92H118.463L116.111 24C115.935 24.544 115.879 24.936 115.943 25.176C116.023 25.416 116.215 25.536 116.519 25.536C116.839 25.536 117.215 25.4 117.647 25.128C118.095 24.84 118.543 24.4 118.991 23.808C119.135 23.648 119.279 23.56 119.423 23.544C119.583 23.528 119.775 23.592 119.999 23.736C120.239 23.88 120.375 24.032 120.407 24.192C120.439 24.336 120.423 24.472 120.359 24.6C120.183 24.92 119.895 25.296 119.495 25.728C119.095 26.16 118.607 26.544 118.031 26.88C117.455 27.2 116.799 27.36 116.063 27.36Z" fill="white"/>
</svg>
