<svg width="48" height="63" viewBox="0 0 48 63" fill="none" xmlns="http://www.w3.org/2000/svg">
<path d="M6.56 62.608C5.64267 62.608 4.832 62.416 4.128 62.032C3.424 61.6693 2.86933 61.1573 2.464 60.496C2.08 59.8347 1.888 59.0773 1.888 58.224C1.888 57.1573 2.12267 56.112 2.592 55.088C3.06133 54.064 3.808 53.0187 4.832 51.952C5.87733 50.8853 7.232 49.7547 8.896 48.56C10.5813 47.3867 12.6293 46.128 15.04 44.784L21.92 23.664C22.5173 21.9147 22.8053 20.496 22.784 19.408C22.7627 18.2987 22.4533 17.488 21.856 16.976C21.28 16.464 20.4267 16.208 19.296 16.208C18.272 16.208 17.3013 16.4213 16.384 16.848C15.488 17.2533 14.656 17.84 13.888 18.608C13.1413 19.3547 12.4907 20.2613 11.936 21.328C11.3813 22.3733 10.9547 23.5467 10.656 24.848C10.3573 26.1493 10.208 27.536 10.208 29.008C10.208 29.968 10.2613 30.9387 10.368 31.92C10.496 32.88 10.6773 33.8187 10.912 34.736C11.168 35.6533 11.4667 36.5173 11.808 37.328C12.1707 38.1387 12.5867 38.8747 13.056 39.536C13.2907 39.8773 13.3333 40.1973 13.184 40.496C13.0347 40.7947 12.8427 41.0293 12.608 41.2C12.1813 41.4987 11.84 41.6373 11.584 41.616C11.328 41.5947 11.0827 41.4133 10.848 41.072C10.2933 40.2187 9.792 39.312 9.344 38.352C8.896 37.3707 8.512 36.3573 8.192 35.312C7.872 34.2667 7.63733 33.2213 7.488 32.176C7.33867 31.1307 7.264 30.1067 7.264 29.104C7.264 27.312 7.46667 25.6373 7.872 24.08C8.27733 22.5013 8.84267 21.072 9.568 19.792C10.3147 18.4907 11.2 17.3813 12.224 16.464C13.248 15.5253 14.368 14.8 15.584 14.288C16.8 13.776 18.0907 13.52 19.456 13.52C21.2693 13.52 22.688 13.936 23.712 14.768C24.736 15.5787 25.3333 16.784 25.504 18.384C25.6747 19.9627 25.3653 21.9467 24.576 24.336L18.528 42.928C19.36 42.48 20.224 42.032 21.12 41.584C22.0373 41.1147 22.976 40.6453 23.936 40.176C24.256 40.0267 24.544 40.0053 24.8 40.112C25.056 40.2187 25.28 40.464 25.472 40.848C25.6427 41.2107 25.7067 41.5307 25.664 41.808C25.6213 42.064 25.4507 42.2667 25.152 42.416C23.68 43.1413 22.2933 43.8347 20.992 44.496C19.712 45.1573 18.5067 45.7867 17.376 46.384L14.752 54.48C14.176 56.272 13.4827 57.7653 12.672 58.96C11.8613 60.176 10.944 61.0827 9.92 61.68C8.91733 62.2987 7.79733 62.608 6.56 62.608ZM6.784 60.016C7.50933 60.016 8.192 59.7707 8.832 59.28C9.472 58.8107 10.0693 58.1173 10.624 57.2C11.1787 56.2827 11.6693 55.1307 12.096 53.744L13.856 48.368C11.68 49.6693 9.92 50.8747 8.576 51.984C7.25333 53.0933 6.29333 54.1387 5.696 55.12C5.09867 56.1227 4.8 57.0933 4.8 58.032C4.8 58.672 4.992 59.1627 5.376 59.504C5.78133 59.8453 6.25067 60.016 6.784 60.016Z" fill="white"/>
<path d="M36.544 46.608C35.712 46.608 34.912 46.512 34.144 46.32C33.3973 46.1493 32.6827 45.904 32 45.584C31.3173 45.2427 30.688 44.848 30.112 44.4C29.5573 43.952 29.088 43.4827 28.704 42.992C28.4267 42.5867 28.3093 42.2453 28.352 41.968C28.3947 41.6693 28.5867 41.3707 28.928 41.072C29.2267 40.8373 29.4933 40.7307 29.728 40.752C29.984 40.7733 30.272 40.944 30.592 41.264C31.168 41.7973 31.7547 42.256 32.352 42.64C32.9493 43.024 33.5893 43.3227 34.272 43.536C34.9547 43.728 35.712 43.824 36.544 43.824C37.5893 43.824 38.5493 43.664 39.424 43.344C40.2987 43.0027 41.056 42.5333 41.696 41.936C42.336 41.3173 42.8267 40.5707 43.168 39.696C43.5093 38.8213 43.68 37.8507 43.68 36.784C43.68 35.9733 43.5627 35.1733 43.328 34.384C43.1147 33.5733 42.816 32.784 42.432 32.016C42.048 31.248 41.5893 30.48 41.056 29.712C40.544 28.9227 39.9787 28.1333 39.36 27.344C38.7413 26.5547 38.0907 25.744 37.408 24.912C35.424 27.984 33.664 30.6507 32.128 32.912C30.6133 35.1733 29.2373 37.0933 28 38.672C26.784 40.2293 25.6533 41.52 24.608 42.544C23.584 43.5467 22.5707 44.3253 21.568 44.88C20.5867 45.4347 19.584 45.8187 18.56 46.032C17.536 46.2453 16.4053 46.352 15.168 46.352C14.7413 46.352 14.4747 46.2347 14.368 46C14.2613 45.7653 14.2827 45.392 14.432 44.88C14.5387 44.496 14.72 44.2187 14.976 44.048C15.2107 43.8773 15.5307 43.792 15.936 43.792C16.6827 43.792 17.3867 43.7067 18.048 43.536C18.7093 43.3653 19.3813 43.088 20.064 42.704C20.7467 42.2987 21.4613 41.7547 22.208 41.072C22.9547 40.368 23.776 39.4827 24.672 38.416C25.568 37.3493 26.5493 36.08 27.616 34.608C28.704 33.1147 29.92 31.376 31.264 29.392C32.608 27.408 34.112 25.136 35.776 22.576C35.456 22.064 35.1573 21.5627 34.88 21.072C34.624 20.56 34.3893 20.0587 34.176 19.568C33.984 19.056 33.8347 18.544 33.728 18.032C33.6213 17.4987 33.568 16.9653 33.568 16.432C33.568 15.4293 33.7707 14.5333 34.176 13.744C34.5813 12.9547 35.136 12.336 35.84 11.888C36.544 11.44 37.3547 11.216 38.272 11.216C39.4027 11.216 40.3307 11.568 41.056 12.272C41.7813 12.9547 42.144 13.8613 42.144 14.992C42.144 15.6107 42.0373 16.272 41.824 16.976C41.6107 17.6587 41.2693 18.4373 40.8 19.312C40.352 20.1867 39.744 21.232 38.976 22.448C39.4453 23.088 39.9467 23.7493 40.48 24.432C41.0347 25.1147 41.6 25.8293 42.176 26.576C42.752 27.3227 43.296 28.1013 43.808 28.912C44.3413 29.7013 44.8107 30.5227 45.216 31.376C45.6213 32.208 45.9413 33.072 46.176 33.968C46.432 34.8427 46.56 35.728 46.56 36.624C46.56 38.1173 46.3147 39.4827 45.824 40.72C45.3547 41.936 44.672 42.992 43.776 43.888C42.88 44.7627 41.8133 45.4347 40.576 45.904C39.36 46.3733 38.016 46.608 36.544 46.608ZM37.408 20.016C37.92 19.1627 38.3253 18.448 38.624 17.872C38.9227 17.2747 39.136 16.752 39.264 16.304C39.392 15.856 39.456 15.4507 39.456 15.088C39.456 14.6613 39.328 14.32 39.072 14.064C38.8373 13.808 38.528 13.68 38.144 13.68C37.76 13.68 37.4293 13.7867 37.152 14C36.8747 14.192 36.6613 14.4907 36.512 14.896C36.3627 15.28 36.288 15.7493 36.288 16.304C36.288 16.7307 36.3307 17.1573 36.416 17.584C36.5227 17.9893 36.6507 18.3947 36.8 18.8C36.9707 19.2053 37.1733 19.6107 37.408 20.016Z" fill="white"/>
</svg>
